<svg width="24" height="25" viewBox="0 0 24 25" fill="none" xmlns="http://www.w3.org/2000/svg">
<path d="M3.99998 0.439209H6.99998C9.20911 0.439209 11 2.23007 11 4.43919V7.43919C11 9.64832 9.20911 11.4392 6.99998 11.4392H3.99998C1.79086 11.4392 0 9.64837 0 7.43919V4.43919C0 2.23007 1.79086 0.439209 3.99998 0.439209Z" fill="white"/>
<path d="M17 0.439209H20C22.2091 0.439209 24 2.23007 24 4.43919V7.43919C24 9.64832 22.2091 11.4392 20 11.4392H17C14.7909 11.4392 13 9.64832 13 7.43919V4.43919C13 2.23007 14.7908 0.439209 17 0.439209Z" fill="white"/>
<path d="M3.99998 13.4392H6.99998C9.20911 13.4392 11 15.2301 11 17.4392V20.4392C11 22.6483 9.20911 24.4392 6.99998 24.4392H3.99998C1.79086 24.4392 0 22.6484 0 20.4392V17.4392C0 15.2301 1.79086 13.4392 3.99998 13.4392Z" fill="white"/>
<path d="M17 13.4392H20C22.2091 13.4392 24 15.2301 24 17.4392V20.4392C24 22.6484 22.2091 24.4392 20 24.4392H17C14.7909 24.4392 13 22.6484 13 20.4392V17.4392C13 15.2301 14.7908 13.4392 17 13.4392Z" fill="white"/>
</svg>
