<svg width="24" height="25" viewBox="0 0 24 25" fill="none" xmlns="http://www.w3.org/2000/svg">
<path d="M16.9 17.3392C19.6 14.6392 19.6 10.1392 16.9 7.43921M7.09995 7.53921C4.39995 10.2392 4.39995 14.7392 7.09995 17.4392" stroke="#4887e0" stroke-width="1.5" stroke-miterlimit="10" stroke-linecap="round" stroke-linejoin="round" />
<path d="M9.69995 14.0393C9.69995 14.9393 10.4 15.6393 11.3 15.6393H13C13.7 15.6393 14.4 15.0393 14.4 14.2393C14.4 13.3393 14 13.0393 13.5 12.8393L10.7 11.8393C9.99995 11.7393 9.69995 11.4393 9.69995 10.6393C9.69995 9.83926 10.3 9.23926 11.1 9.23926H12.9C13.8 9.23926 14.5 9.93926 14.5 10.8393M12 8.23926V16.6393" stroke="white" stroke-width="1.5" stroke-linecap="round" stroke-linejoin="round"/>
<path d="M12 22.4392C17.523 22.4392 22 17.9622 22 12.4392C22 6.91621 17.523 2.43921 12 2.43921C6.477 2.43921 2 6.91621 2 12.4392C2 17.9622 6.477 22.4392 12 22.4392Z" stroke="white" stroke-width="1.5" stroke-miterlimit="10" stroke-linecap="round" stroke-linejoin="round"/>
</svg>
