<svg width="24" height="25" viewBox="0 0 24 25" fill="none" xmlns="http://www.w3.org/2000/svg">
<g clip-path="url(#clip0_189_828)">
<path d="M12 6.43921C11.2044 6.43921 10.4413 6.75528 9.87868 7.31789C9.31607 7.8805 9 8.64356 9 9.43921V21.4392C9 22.2349 9.31607 22.9979 9.87868 23.5605C10.4413 24.1231 11.2044 24.4392 12 24.4392C12.7956 24.4392 13.5587 24.1231 14.1213 23.5605C14.6839 22.9979 15 22.2349 15 21.4392V9.43921C15 8.64356 14.6839 7.8805 14.1213 7.31789C13.5587 6.75528 12.7956 6.43921 12 6.43921Z" fill="white"/>
<path d="M21 0.439209C20.2044 0.439209 19.4413 0.755279 18.8787 1.31789C18.3161 1.8805 18 2.64356 18 3.43921V21.4392C18 22.2349 18.3161 22.9979 18.8787 23.5605C19.4413 24.1231 20.2044 24.4392 21 24.4392C21.7956 24.4392 22.5587 24.1231 23.1213 23.5605C23.6839 22.9979 24 22.2349 24 21.4392V3.43921C24 2.64356 23.6839 1.8805 23.1213 1.31789C22.5587 0.755279 21.7956 0.439209 21 0.439209V0.439209Z" fill="white"/>
<path d="M3 12.4392C2.20435 12.4392 1.44129 12.7553 0.87868 13.3179C0.31607 13.8805 0 14.6436 0 15.4392L0 21.4392C0 22.2349 0.31607 22.9979 0.87868 23.5605C1.44129 24.1231 2.20435 24.4392 3 24.4392C3.79565 24.4392 4.55871 24.1231 5.12132 23.5605C5.68393 22.9979 6 22.2349 6 21.4392V15.4392C6 14.6436 5.68393 13.8805 5.12132 13.3179C4.55871 12.7553 3.79565 12.4392 3 12.4392Z" fill="white"/>
</g>
<defs>
<clipPath id="clip0_189_828">
<rect width="24" height="24" fill="white" transform="translate(0 0.439209)"/>
</clipPath>
</defs>
</svg>
