<svg width="20" height="25" viewBox="0 0 20 25" fill="none" xmlns="http://www.w3.org/2000/svg">
<path d="M13 8.43915H19.54C19.1909 7.51403 18.6485 6.67403 17.949 5.97517L14.465 2.48917C13.7653 1.7905 12.9251 1.24848 12 0.89917V7.43917C12 7.9914 12.4477 8.43915 13 8.43915Z" fill="#4887e0"/>
<path d="M19.976 10.4392H13C11.3431 10.4392 9.99998 9.09604 9.99998 7.43919V0.463209C9.83897 0.452193 9.678 0.439209 9.51497 0.439209H4.99997C2.23992 0.442537 0.00328125 2.67918 0 5.43922V19.4392C0.00328125 22.1992 2.23992 24.4359 4.99997 24.4392H15C17.76 24.4359 19.9966 22.1992 20 19.4392V10.9242C20 10.7612 19.987 10.6002 19.976 10.4392Z" fill="white"/>
</svg>
